<svg role="img" viewBox="0 0 24 24" xmlns="http://www.w3.org/2000/svg"><title>Amazon AWS</title><path d="M6.763 10.036c0 .296.032.535.088.71.064.176.144.368.256.576.04.063.056.127.056.176 0 .063-.04.127-.12.191l-.4.264c-.056.04-.12.056-.184.056-.072 0-.144-.04-.2-.104-.112-.12-.2-.248-.272-.392-.072-.144-.136-.304-.2-.48-.504.592-1.136.888-1.896.888-.544 0-.976-.152-1.312-.464-.336-.312-.504-.727-.504-1.263 0-.56.2-1.015.6-1.359.4-.344.928-.52 1.608-.52.224 0 .456.016.704.056.248.04.504.088.8.152v-.48c0-.495-.104-.84-.304-1.04-.208-.2-.56-.296-1.04-.296-.224 0-.456.024-.688.08-.232.056-.464.12-.688.2-.104.04-.184.064-.232.072-.048.008-.08.016-.112.016-.096 0-.144-.072-.144-.216v-.336c0-.112.016-.2.056-.248.04-.048.112-.096.2-.136.224-.112.496-.208.808-.28.312-.08.632-.112.968-.112.736 0 1.272.168 1.624.504.344.336.52.856.52 1.56v2.064zm-2.624 1.008c.216 0 .44-.04.68-.12.24-.08.456-.216.632-.408.104-.12.184-.248.224-.392.04-.144.072-.312.072-.504v-.24c-.192-.048-.4-.088-.624-.112-.224-.024-.44-.04-.648-.04-.464 0-.8.088-1.016.272-.216.184-.32.44-.32.784 0 .328.08.568.256.728.168.176.432.264.744.264zm5.808 1.424c-.12 0-.2-.024-.248-.064-.048-.048-.088-.144-.128-.288l-1.424-4.672c-.04-.128-.056-.216-.056-.264 0-.104.056-.168.152-.168h.624c.128 0 .216.024.248.064.048.048.08.144.128.288l1.016 4.008 1.936-4.008c.04-.144.08-.24.128-.288.048-.048.128-.064.248-.064h.504c.12 0 .2.024.248.064.048.048.088.144.128.288l1.96 4.056 1.048-4.056c.048-.144.088-.24.128-.288.048-.048.128-.064.248-.064h.592c.104 0 .168.056.168.168 0 .032-.008.072-.016.112-.008.04-.024.104-.048.184l-1.48 4.672c-.04.128-.088.216-.128.288-.048.048-.128.064-.248.064h-.544c-.12 0-.2-.024-.248-.064-.048-.048-.088-.144-.128-.288l-1.928-4.008-1.904 4.008c-.04.144-.08.24-.128.288-.048.048-.128.064-.248.064h-.544zm8.472.128c-.336 0-.672-.04-.984-.112-.312-.08-.552-.168-.728-.288-.104-.064-.176-.136-.2-.2-.024-.064-.04-.136-.04-.2v-.352c0-.144.056-.216.152-.216.048 0 .096.008.144.024.048.016.12.048.2.08.272.112.568.2.888.256.32.056.632.088.936.088.496 0 .88-.088 1.144-.264.264-.176.4-.424.4-.744 0-.216-.056-.4-.184-.552-.128-.152-.368-.296-.704-.432l-1.008-.32c-.728-.232-1.264-.576-1.576-.1.032-.312-.312-.744-.312-1.296 0-.416.088-.784.272-1.096.184-.312.432-.576.744-.784.312-.208.672-.368 1.088-.464.416-.096.856-.144 1.32-.144.144 0 .296.008.44.032.144.024.28.048.416.08.128.032.256.072.376.112.12.04.216.088.296.136.08.056.136.112.168.176.032.064.048.136.048.216v.328c0 .144-.056.216-.152.216-.064 0-.168-.032-.296-.088-.472-.216-1.024-.32-1.624-.32-.464 0-.832.072-1.08.216-.248.144-.376.368-.376.672 0 .216.064.4.2.544.136.144.384.288.736.424l.984.312c.72.232 1.248.56 1.56.984.312.424.472.912.472 1.456 0 .424-.088.8-.256 1.128-.176.328-.416.608-.736.832-.32.224-.704.384-1.144.496-.44.128-.912.184-1.408.184zm2.696-4.704c0 .544-.112 1.024-.328 1.424-.216.4-.504.744-.864 1.016-.36.272-.784.48-1.256.624-.472.144-.96.216-1.472.216-.52 0-1.008-.072-1.472-.216-.464-.144-.888-.352-1.248-.624-.36-.272-.648-.616-.864-1.016-.216-.4-.328-.88-.328-1.424s.112-1.024.328-1.424c.216-.4.504-.744.864-1.016.36-.272.784-.48 1.248-.624.464-.144.952-.216 1.472-.216.512 0 1 .072 1.472.216.472.144.896.352 1.256.624.36.272.648.616.864 1.016.216.4.328.88.328 1.424zm-.8 0c0-.448-.096-.84-.288-1.176-.192-.336-.448-.616-.768-.832-.32-.216-.688-.376-1.104-.48-.416-.104-.848-.152-1.296-.152s-.88.048-1.296.152c-.416.104-.784.264-1.104.48-.32.216-.576.496-.768.832-.192.336-.288.728-.288 1.176s.096.84.288 1.176c.192.336.448.616.768.832.32.216.688.376 1.104.48.416.104.848.152 1.296.152s.88-.048 1.296-.152c.416-.104.784-.264 1.104-.48.32-.216.576-.496.768-.832.192-.336.288-.728.288-1.176z" fill="#FF9900"/></svg>