<svg xmlns="http://www.w3.org/2000/svg" viewBox="0 0 128 128"><path fill="#439934" d="M88.038 42.812c1.605 4.643 2.761 9.383 3.141 14.296.472 6.095.256 12.147-1.029 18.142-.035.165-.109.32-.164.48-.403.001-.814-.049-1.208.012-3.329.523-6.655 1.065-9.981 1.604-3.438.557-6.881 1.092-10.313 1.687-1.216.21-2.721-.041-3.212 1.641-.014.046-.154.054-.235.08l.166-10.051c-.057-8.084-.113-16.168-.169-24.252l1.602-.275c2.62-.429 5.24-.864 7.862-1.281 3.129-.497 6.261-.98 9.392-1.479.468-.075.934-.224 1.399-.232.808-.014 1.617-.006 2.425-.006l.323.034z"/><path fill="#45A538" d="M61.729 110.054c-1.69-1.453-3.439-2.842-5.059-4.37-8.717-8.222-15.093-17.899-18.233-29.566-.865-3.211-1.442-6.474-1.627-9.792-.13-2.322-.318-4.665-.154-6.975.437-6.144 1.325-12.229 3.127-18.147l.099-.138c.175.233.427.439.516.702 1.759 5.18 3.505 10.364 5.242 15.551 5.458 16.3 10.909 32.604 16.376 48.9.107.318.384.579.583.866l-.87 2.969z"/><path fill="#46A037" d="M88.038 42.812c-1.657.926-3.618.772-5.418 1.193-7.264 1.695-14.524 3.414-21.78 5.152-.306.073-.612.16-.918.247l-.051-.831c-.182-2.974-.36-5.948-.547-8.922-.297-4.717-.41-9.464-.794-14.175.198-.251.566-.464.609-.752.499-3.346.896-6.718 1.407-10.069.139-.911.402-1.808.606-2.712.003-.02.288-.044.288-.044l.288.058s-.18.135-.18.155c-.426 1.109-.832 2.23-1.236 3.346-1.206 3.33-1.171 3.326-2.363 6.667-.184.516-.346 1.041-.496 1.569 7.038-2.009 14.086-3.992 21.113-6.036 5.674-1.653 11.353-3.298 17.022-4.982.359-.106.717-.212 1.075-.318l-.275.659c-1.562 3.751-3.135 7.497-4.693 11.25-1.032 2.494-2.058 4.992-3.078 7.492-.147.36-.29.722-.436 1.083l-.006-.007z"/><path fill="#409433" d="M65.036 80.753c.081-.026.222-.034.235-.08.491-1.682 1.996-1.431 3.212-1.641 3.432-.594 6.875-1.13 10.313-1.687 3.326-.539 6.652-1.081 9.981-1.604.394-.061.805-.011 1.208-.012-.622 5.301-2.363 10.41-4.766 15.268-4.702 9.49-10.98 17.710-19.054 24.507-1.421 1.199-2.924 2.304-4.386 3.456l-1.564-18.266c-.171-2.001-.332-4.002-.492-6.003-.404-4.966-.808-9.932-1.212-14.898-.047-.58-.016-1.171-.016-1.758v-.381c.016 0 .016-.001.016-.001l7.525 1.1z"/><path fill="#4FAD42" d="M88.038 42.812c-.08-.289-.075-.621-.323-.034-.808 0-1.617-.008-2.425.006-.465.008-.931.157-1.399.232-3.131.499-6.263.982-9.392 1.479-2.622.417-5.242.852-7.862 1.281l-1.602.275-.323-.275c-.81-.677-1.63-1.342-2.429-2.035-2.522-2.193-4.928-4.527-7.201-6.979-.443-.477-.851-.99-1.275-1.488l.291-.325c.191-.213.158-.139.373-.139 4.322.476 8.645.943 12.965 1.436 2.24.256 4.479.53 6.717.812 2.137.269 4.271.558 6.405.848 2.69.365 5.379.745 8.068 1.125l.565.083-.553 3.912z"/><path fill="#4AA73C" d="M53.235 16.546c.8.274 1.592.568 2.381.877 2.699 1.057 5.357 2.245 7.971 3.528 2.102.103 4.165-.249 6.264-.302 3.739-.095 7.479-.24 11.219-.24l.565-.083c-.365-.729-.752-1.469-1.139-2.209-.849-1.619-1.699-3.239-2.548-4.859-.154-.294-.291-.624-.493-.879-.38-.48-.854-.891-1.281-1.336l-.494-.51s-.082-.082-.165-.082h-.082c-7.071 2.045-14.169 3.970-21.198 6.095z"/><path fill="#57B846" d="M61.729 110.054c.87-2.969.87-2.969.87-2.969-.199-.287-.476-.548-.583-.866-5.467-16.296-10.918-32.6-16.376-48.9-1.737-5.187-3.483-10.371-5.242-15.551-.089-.263-.341-.469-.516-.702l-.099.138c-.087.349-.191.704-.191 1.073 0 .128.104.073.104.073s.193-.055.289-.01c.07.033.227.141.227.141s-.115.176-.096.259c.136 .582.336 1.147.492 1.730 1.632 6.117 4.15 11.915 7.551 17.322 7.222 11.479 16.653 21.027 28.615 28.129 2.663 1.58 5.432 2.974 8.301 4.209l-2.262 8.441c-.016.058-.016.117-.016.175.001.059-.68-.416-1.564-.416-8.301 0-15.041-6.745-15.041-15.051 0-.827.065-1.638.19-2.425 3.29-20.577-.266-34.811-1.148-42.468-.882-7.656.266-18.429-3.289-30.577-.266-1.148-.39-2.425-.39-3.835 0-.56-.091-1.202-.178-1.693-.266-1.504-.677-2.892-.677-4.58 0-1.688.411-3.179.411-4.58 0-1.401.074-2.949-.337-4.35-.411-1.401-.411-2.802-.41-3.986.001-1.184.751-2.295.751-3.835 0-1.54-.482-3.148-.482-4.579 0-1.432-.15-2.945-.15-4.581 0-1.636 1.06-3.149 1.06-4.581 0-1.432-.411-2.802-.411-4.58 0-1.778-.601-3.594-.601-5.393 0-1.799-.266-3.326-.266-5.317 0-1.991-1.284-4.135-1.284-6.126 0-1.991-.073-3.95-.073-5.317 0-1.367 1.284-3.149 1.284-4.58 0-1.431-.677-2.862-.677-4.58 0-1.718 1.06-3.178 1.06-4.58 0-1.402.411-2.803.411-4.58 0-1.777 0-3.522 0-5.317 0-1.795.901-3.326 1.06-5.317.16-1.991.411-4.135.41-6.126 0-1.991-.32-3.952-.32-5.317 0-1.365.41-2.802.41-4.58 0-1.778 1.061-3.55 1.061-5.317 0-1.767-.411-3.522-.411-5.317s.677-3.628.677-5.317c0-1.689.074-3.686.074-5.317 0-1.631.411-3.149.41-4.58 0-1.431-.89-2.802-.89-4.58 0-1.778.41-3.552.41-5.317 0-1.765-.073-3.628-.073-5.317 0-1.689.41-3.178.41-4.58 0-1.402.749-2.802.749-4.58 0-1.778-.16-3.552-.16-5.317 0-1.765.41-3.507.41-5.317 0-1.81 1.06-3.536 1.06-5.317 0-1.781-.074-3.522-.074-5.317 0-1.795 1.061-3.552 1.061-5.317 0-1.765.073-3.543.073-5.317 0-1.774-.41-3.522-.41-5.317 0-1.795.677-3.552.677-5.317 0-1.765.321-3.552.321-5.317 0-1.765-.321-3.552-.321-5.317 0-1.765.656-3.552.656-5.317 0-1.765-.073-3.552-.073-5.317 0-1.765.41-3.552.41-5.317 0-1.765.073-3.552.073-5.317 0-1.765.674-3.552.674-5.317 0-1.765-.337-3.552-.337-5.317 0-1.765.337-3.552.337-5.317 0-1.765.337-3.552.337-5.317 0-1.765-.337-3.552-.337-5.317 0-1.765 0-3.552 0-5.317 0-1.765.337-3.552.337-5.317 0-1.765.337-3.552.337-5.317 0-1.765-.337-3.552-.337-5.317 0-1.765.674-3.552.674-5.317z"/><path fill="#60B24F" d="M88.038 42.812c.146-.361.289-.723.436-1.083 1.02-2.5 2.046-4.998 3.078-7.492 1.558-3.753 3.131-7.499 4.693-11.25l.275-.659.497 1.048c6.251 13.163 6.251 13.163 6.251 13.163s.497 1.048 0 0c-.368 5.536-1.739 10.914-3.587 16.097-.405 1.137-.814 2.273-1.238 3.404-.18.48-.18.48-.481 1.205-.301.725-.481 1.205-.481 1.205s.18-.48-.18-.48c-.36 0-.36 0-.36 0s-1.443 3.847-2.886 7.694c-.72 1.924-1.443 3.847-1.443 3.847s-.36 0-.36 0 .18-.48 0 0c-.18.48 0 0 0 0s.18-.48.18-.48-.18.48-.18.48c-.722 1.924-1.443 3.848-1.443 3.848s-.902 2.405-1.804 4.811c-.45 1.203-.902 2.405-.902 2.405s-.451 1.203-.451 1.203-.451 1.203-.451 1.203c-.451 1.203-.451 1.203-.451 1.203s.451-1.203 0 0c-.451 1.203 0 0 0 0s-.451 1.203-.451 1.203 0 0 0 0 .451-1.203.451-1.203c.451-1.203.451-1.203.451-1.203s0 0 0 0 .451-1.203.451-1.203c.451-1.203.451-1.203.451-1.203s0 0 0 0-.451 1.203-.451 1.203.451-1.203.451-1.203c.451-1.203.451-1.203.451-1.203s-.451 1.203-.451 1.203-.451 1.203-.451 1.203.902-2.405.902-2.405c.451-1.203.902-2.405.902-2.405s.901-2.405.901-2.405c.452-1.203.902-2.405.902-2.405s1.443-3.847 1.443-3.847c.721-1.924 1.443-3.847 1.443-3.847s.18-.48.18-.48c.18-.48.18-.48.18-.48s.481-1.205.481-1.205c.301-.725.481-1.205.481-1.205s.18-.48.18-.48c.424-1.131.833-2.267 1.238-3.404 1.848-5.183 3.219-10.561 3.587-16.097l-.497-1.048c-.394-.829-.394-.829-.875-.225-.541.679-1.007 1.416-1.516 2.12z"/></svg>